<svg xmlns="http://www.w3.org/2000/svg" width="194" height="150"><g data-name="Group 2558"><path data-name="Path 8900" d="M108.951 136.852q-3.366-.417-6.733-.831c-11.924-1.45-27.14-8.582-34.907-16.31l7.362-7.3a57.909 57.909 0 0 0 33.842 13.826c0-1.89.076-3.658-.028-5.415-.072-1.221.388-1.538 1.526-1.483 1.688.081 3.387.069 5.077.005 1.019-.04 1.306.348 1.266 1.326-.069 1.773-.019 3.551-.019 5.562a57.875 57.875 0 0 0 33.9-13.887l7.34 7.354c-.262.233-.671.619-1.1.98a67.488 67.488 0 0 1-36.359 15.646c-1.407.16-2.811.347-4.217.523Z" fill="#fff"/><path data-name="Path 8901" d="m180.85 71.9-.833 6.736c-1.5 12.034-8.533 27.034-16.332 34.915-2.387-2.421-4.779-4.846-7.271-7.376a57.913 57.913 0 0 0 13.826-33.839c-1.945 0-3.756-.048-5.562.019-.973.035-1.369-.241-1.333-1.267a71.573 71.573 0 0 0 0-5.343c-.04-1.042.385-1.286 1.34-1.25 1.773.064 3.551.017 5.546.017a57.763 57.763 0 0 0-13.849-33.863c2.451-2.466 4.85-4.877 7.362-7.407 1 1.243 2.185 2.613 3.272 4.058a68.165 68.165 0 0 1 13.487 34.62c.1 1.012.231 2.021.347 3.034Z" fill="#fff"/><path data-name="Path 8902" d="m44.002 64.951.828-6.733c1.487-12.012 8.434-26.835 16.351-34.955 2.371 2.433 4.743 4.87 7.233 7.428a57.9 57.9 0 0 0-13.8 33.813c1.847 0 3.568.066 5.281-.022 1.186-.062 1.694.255 1.611 1.535a42.177 42.177 0 0 0-.005 4.808c.057 1.133-.25 1.606-1.478 1.531-1.723-.1-3.458-.026-5.4-.026a57.814 57.814 0 0 0 13.868 33.9l-7.483 7.431c-1.818-2.449-3.9-4.989-5.7-7.718a66.708 66.708 0 0 1-11.051-32.744 10.334 10.334 0 0 0-.25-1.3Z" fill="#fff"/><path data-name="Path 8903" d="m115.9 0 6.735.831c11.924 1.45 26.956 8.5 34.87 16.279l-7.328 7.324a57.921 57.921 0 0 0-33.842-13.833c0 1.9-.055 3.661.021 5.42.047 1.068-.231 1.537-1.392 1.478a49.815 49.815 0 0 0-5.075 0c-1.159.059-1.444-.409-1.4-1.475.072-1.726.019-3.458.019-5.41A57.888 57.888 0 0 0 74.583 24.52l-7.335-7.342c.224-.205.562-.54.926-.845A67.379 67.379 0 0 1 104.729.518c1.409-.159 2.815-.345 4.22-.519Z" fill="#fff"/><path data-name="Path 8904" d="M160.839 68.838a48.3 48.3 0 1 0-58.432 47.229l10.01 20.018 11.665-20.338a48.316 48.316 0 0 0 36.76-46.908" fill="#fff"/><path data-name="Path 8905" d="m134.724 47.83-21.773 52.52-.235.005c-.407-1.685-.825-3.368-1.214-5.057q-2.178-9.416-4.325-18.84a1.312 1.312 0 0 0-1.193-1.1q-11.613-2.657-23.214-5.371c-.207-.047-.4-.131-.843-.276l52.8-21.887" fill="#00479b"/></g></svg>