<svg xmlns="http://www.w3.org/2000/svg" width="193.373" height="150"><defs><clipPath id="a"><path data-name="Rectangle 1157" fill="none" d="M0 0h155.535v150H0z"/></clipPath></defs><g data-name="Group 1945"><g data-name="Group 1944" clip-path="url(#a)" transform="translate(37.837)"><g data-name="Group 1943"><g data-name="Group 1942"><path data-name="Path 7935" d="M29.793 30.746h119.15l.088-.111a18.337 18.337 0 0 0 0-22.561l-.088-.116H29.793l.592.669a16.39 16.39 0 0 1-.487 22.014Z" fill="#6f0f0b"/><path data-name="Path 7936" d="M125.212 177.783H16.427v-156.3c0-7.292 5.616-13.207 12.548-13.207H135.4s11.05-.691 10.823 0c-7.75.16-7.352 22.788-7.352 22.788V163.4c0 7.939-6.113 14.383-13.659 14.383Z" fill="#fff"/><path data-name="Path 7937" d="M125.057 177.78H5.908l-.088-.116a18.337 18.337 0 0 1 0-22.561l.088-.111h119.149l-.591.669c-5.528 6.264-6.467 16.95.591 22.119Z" fill="#6f0f0b"/></g></g></g></g><g data-name="Group 1948" transform="translate(0 .215)"><ellipse data-name="Ellipse 990" cx="68.343" cy="68.303" rx="68.343" ry="68.303" fill="#fff"/><ellipse data-name="Ellipse 991" cx="66.369" cy="66.329" rx="66.369" ry="66.329" transform="translate(1.974 1.974)" fill="#9b1f15"/><g data-name="Group 1947"><g data-name="Group 1946" fill="#fff"><path data-name="Path 7938" d="m51.216 121.083-2.495 5.791-2.389-1.029 2.451-5.7c.846-1.969.343-3.147-1.106-3.772s-2.655-.177-3.5 1.787l-2.45 5.7-2.367-1.018 2.495-5.791c1.306-3.037 3.778-3.971 6.715-2.7s3.952 3.695 2.646 6.732Z"/><path data-name="Path 7939" d="m38.012 110.003-1.969.891a6.652 6.652 0 0 0-2.013-3.347c-1.156-1.023-1.975-1.056-2.423-.531-1.4 1.582 4.475 4.834 1.7 7.976-1.267 1.433-3.485 1.6-5.891-.514a7.585 7.585 0 0 1-2.273-3.341l1.919-.957a6.315 6.315 0 0 0 1.757 2.738c1.161 1.023 1.986.985 2.456.448 1.377-1.554-4.491-4.818-1.748-7.926 1.25-1.416 3.485-1.582 5.9.542a8.123 8.123 0 0 1 2.585 4.021Z"/><path data-name="Path 7940" d="m22.016 93.375 2.688 4.469 2.577-.387 1.383 2.284-12.224 1.51-1.327-2.2 7.042-10.111 1.4 2.34Zm-1.272 1.72-2.766 3.75 4.6-.691Z"/><path data-name="Path 7941" d="m7.203 76.027 11.052-2.312.537 2.555-4.536.946 1.051 5.023 4.53-.951.536 2.561-11.052 2.312-.535-2.558 4.359-.907-1.056-5.022-4.353.913Z"/><path data-name="Path 7942" d="m16.585 59.269-.664 5.2 2.268 1.3-.338 2.655-10.559-6.422.326-2.561 11.837-3.573-.349 2.716Zm-2.074.564-4.519 1.228 4.067 2.323Z"/><path data-name="Path 7943" d="m31.247 34.582-5.36-4.143 2.367 6.046-.719.929-6.322-.719 5.238 4.066-1.5 1.936-8.922-6.925 1.327-1.7 8.137.962-2.993-7.589 1.317-1.7 8.939 6.9Z"/><path data-name="Path 7944" d="m31.745 19.176 2.135-1.5 6.533 9.215-2.122 1.509Z"/><path data-name="Path 7945" d="m48.699 17.62-.863 2.014 1 2.672-2.434.913-3.96-10.57 2.423-.913 1.853 4.94 2.838-6.693 2.71-1.018-2.611 6.35 6.842 4.115-2.854 1.079Z"/><path data-name="Path 7946" d="m68.91 18.312-2.312-3.048-.127.006-2.268.1.133 3.136-2.605.116-.487-11.267 4.879-.21c3-.127 4.951 1.35 5.061 3.877a3.655 3.655 0 0 1-2.163 3.656l2.688 3.518ZM66.057 9.27l-2.124.094.172 3.927 2.124-.094c1.593-.066 2.367-.841 2.318-2.063-.051-1.235-.89-1.927-2.49-1.864Z"/><path data-name="Path 7947" d="M78.668 13.324a6.2 6.2 0 1 1 4.231 7.384 5.858 5.858 0 0 1-4.231-7.384Zm9.315 2.816a3.54 3.54 0 1 0-4.442 2.434 3.464 3.464 0 0 0 4.441-2.435Z"/><path data-name="Path 7948" d="m107.389 37.02-.028-1.853a6.091 6.091 0 0 1-3.518-1.859c-1.72-1.8-2.052-4.01-.741-5.26 1.029-.979 2.263-1.112 4.154-.531a3.376 3.376 0 0 1 .924-2.495c1.189-1.139 2.959-.913 4.436.625 1.35 1.411 1.521 3.031.365 4.137-.841.808-1.925.907-3.59.382l.039 2.821a7.658 7.658 0 0 0 1.665-.813l.935 1.9a7.474 7.474 0 0 1-2.567 1.023l.028 1.8Zm-.066-3.878-.039-3.734c-1.145-.332-1.775-.249-2.279.238-.6.57-.481 1.527.382 2.428a3.592 3.592 0 0 0 1.933 1.068Zm2.467-6.483c-.315.3-.426.647-.442 1.615 1.2.393 1.753.36 2.129.005a.955.955 0 0 0-.1-1.449 1.062 1.062 0 0 0-1.588-.171Z"/><path data-name="Path 7949" d="m120.9 53.611-1.914-1.045-2.749.752-.68-2.495 10.863-2.965.68 2.506-5.072 1.383 6.389 3.424.758 2.793-6.068-3.186-4.724 6.411-.8-2.937Z"/><path data-name="Path 7950" d="m120.425 75.348-2.091-.083.354-8.712 11.245.448-.337 8.5-2.091-.083.232-5.913-2.434-.094-.21 5.222-2.024-.083.21-5.216-2.605-.111Z"/><path data-name="Path 7951" d="M122.653 82.626a6.223 6.223 0 0 1-.066 11.444l-.885-2.107a3.617 3.617 0 0 0 2.207-2.213 3.611 3.611 0 1 0-6.787-2.467 3.572 3.572 0 0 0 .288 3.125l-2.035 1.051a6.215 6.215 0 0 1 7.279-8.834Z"/><path data-name="Path 7952" d="m119.711 102.292-1.477 2.152-9.3-6.4 1.482-2.152Z"/><path data-name="Path 7953" d="m111.95 111.912-1.947 1.737-6.085-6.8-4.2 3.761-1.422-1.588 6.145-5.493Z"/></g></g><ellipse data-name="Ellipse 992" cx="44.509" cy="44.469" rx="44.509" ry="44.469" transform="translate(23.834 23.834)" fill="#fff"/><text transform="rotate(-.745 5994.789 -2842.2)" fill="#1351a2" font-size="25" font-family="Montserrat" font-weight="600"><tspan x="0" y="0">UMK</tspan></text></g><g data-name="Group 1949"><path data-name="Path 7954" d="M127.202 125.413h33.513a.708.708 0 0 0 0-1.416h-33.513a.708.708 0 0 0 0 1.416Z" fill="#9b1f15"/><path data-name="Path 7955" d="M154.233 119.013a8.376 8.376 0 0 1-3.684.47l-.177-.5c-.133-.382-.758-.459-.846 0-.028.144-.326 1.427-.813.8-.288-.371-.127-.951-.078-1.372a1.907 1.907 0 0 0-.265-1.421c-.36-.431-1.35-.874-1.814-.3-.714.891.365 2.1-.487 3.064-.5.564-1.388.2-1.848-.26a3.226 3.226 0 0 0-.055-3.208.461.461 0 0 0-.791 0 4.137 4.137 0 0 0-.288 3.109 1.3 1.3 0 0 1-1.389.089 5.242 5.242 0 0 0 .658-4.27.486.486 0 0 0-.88-.116 5.275 5.275 0 0 0-1.305 3.335 2.393 2.393 0 0 0 .326 1.068 4.3 4.3 0 0 1-2.815 1.427l-.055-.194c-.077-.266-.16-.525-.254-.785 0-.614.011-1.228.039-1.842.094-.149.2-.3.315-.465a18.817 18.817 0 0 0 1.361-2.362 19.334 19.334 0 0 0 1.825-10.548.468.468 0 0 0-.791-.326 5.985 5.985 0 0 0-1.781 3.07 40.457 40.457 0 0 0-1.156 4.63 41.086 41.086 0 0 0-.664 5.642l-.111.155a2.354 2.354 0 0 0 .061 2.3c0 .4.011.8.022 1.189a.463.463 0 0 0 .454.454h.017a21.122 21.122 0 0 1 .448 2.555 19.4 19.4 0 0 1-.642 7.329c-.9-.42-1.023-5.177-1.051-5.819a42.452 42.452 0 0 1 .182-4.962.4.4 0 0 0 .188-.426l-.127-.691a.436.436 0 0 0-.835 0 29.809 29.809 0 0 0-.332 6.079c.033 1.056.122 2.107.243 3.158a9.3 9.3 0 0 0 .492 2.555c.387.924 1.737 1.7 2.129.382a20.022 20.022 0 0 0 .791-5.636 19.746 19.746 0 0 0-.542-4.552 5.211 5.211 0 0 0 3.225-1.615 2.461 2.461 0 0 0 .6.315 2.125 2.125 0 0 0 1.853-.354 2.611 2.611 0 0 0 .326.265c1.1.741 2.843.636 3.291-.83a4.629 4.629 0 0 0 .017-2.2.3.3 0 0 1 .4.1c.265.21.116.946.083 1.239a2.179 2.179 0 0 0 .138 1.3 1.423 1.423 0 0 0 1.322.874 1.089 1.089 0 0 0 .841-.636.523.523 0 0 0 .221.072 8.934 8.934 0 0 0 4.242-.465c.541-.206.312-1.069-.234-.87Zm-16.234-6.348a40.706 40.706 0 0 1 .924-3.983 9.125 9.125 0 0 1 1.15-2.887 18.734 18.734 0 0 1-2.528 10.321 43.23 43.23 0 0 1 .454-3.451Zm3.579 4a4.308 4.308 0 0 1-.492 1.969 2.9 2.9 0 0 1 .493-1.969Z" fill="#9b1f15"/><path data-name="Path 7956" d="M156.512 120.894a.39.39 0 0 0 0 .78.39.39 0 0 0 0-.78Z" fill="#33454c"/></g></svg>